# xmcd
#
# Track frame offsets: 
#        150
#        55947
#        74853
#        113875
#        147232
#        197223
#        247330
#        286706
#
# Disc length: 4088 seconds
#
# Revision: 1
# Processed by: cddbd v1.5.2PL0 Copyright (c) Steve Scherf et al.
# Submitted via: ExactAudioCopy v0.99pb4
#
DISCID=850ff608
DTITLE=The Globetrotters - Fairy Tales of The Trees
DYEAR=2003
DGENRE=World Jazz
TTITLE0=Jungle Book
TTITLE1=Fatima
TTITLE2=Missing
TTITLE3=Over The Kalaghari
TTITLE4=Yoy Are Not Here
TTITLE5=Disco II
TTITLE6=Fairy Tales of The Trees
TTITLE7=See You !!
EXTD=
EXTT0=
EXTT1=
EXTT2=
EXTT3=
EXTT4=
EXTT5=
EXTT6=
EXTT7=
PLAYORDER=
